<?xml version="1.0" encoding="utf-8"?>
<!-- Generator: Adobe Illustrator 25.4.6, SVG Export Plug-In . SVG Version: 6.00 Build 0)  -->
<svg version="1.1" id="Layer_1" xmlns="http://www.w3.org/2000/svg" xmlns:xlink="http://www.w3.org/1999/xlink" x="0px" y="0px"
	 viewBox="195 60 300 300" style="" xml:space="preserve">
<style type="text/css">
	.st0{fill:#11100F;}
	.st1{fill:#E88610;}
	.st2{fill:#28AFC6;}
	.st3{fill:#3BB3C3;}
	.st4{fill-rule:evenodd;clip-rule:evenodd;fill:#3BB3C3;}
</style>
<g>
	<g>
		<g>
			<path class="st0" d="M388.4,282.01c5.03-3.05,8.69-6.88,11.25-10.81c2.89-4.42,4.15-9.21,3.66-13.85v0
				c-0.61-5.77-2.87-9.78-7.33-13.02l-4.05-2.94l1.52-4.77c0.46-1.43,0.83-2.83,1.12-4.16c2.01-9.24,1.1-18.96-2.62-28.13
				c-2.41-5.94-5.06-9.63-8.12-13.9c-0.74-1.03-1.57-2.19-2.42-3.42c-0.23-0.34-0.47-0.67-0.7-0.99l-2.9-3.96l2.77-4.05
				c0.51-0.75,0.98-1.53,1.38-2.3c1.64-3.16,3.05-6.49,4.2-9.92l0.6-1.77l1.41-1.23c3.86-3.38,8.71-8.09,12.02-14.55
				c1.66-3.24,2.32-8.46,2.02-15.97c-0.21-5.3-0.85-10.13-1.1-11.52c-0.51-2.77-1.52-4.76-3.09-6.07l-1.85-1.54l-2.42-0.19
				c-1.27-0.1-2.69,0.08-4.24,0.53c-4.22,1.23-7.79,3.38-10.73,5.32l-3.62,2.39l-3.74-2.21c-5.92-3.51-11.94-5.58-18.38-6.33
				c-2.77-0.32-5.5-0.48-8.09-0.46l-0.06,0c-0.02,0-0.05,0-0.07,0c-2.58,0-5.27,0.17-8.01,0.5c-6.67,0.82-12.78,2.91-18.17,6.22
				l-3.83,2.36l-3.72-2.54c-3.22-2.2-6.84-3.89-10.74-5c-1.55-0.44-2.97-0.61-4.24-0.51l-2.42,0.2l-1.84,1.55
				c-1.56,1.32-2.56,3.31-3.05,6.08c-0.25,1.39-0.85,6.22-1.04,11.53c-0.26,7.5,0.43,12.72,2.11,15.95
				c3.34,6.43,8.22,11.12,12.1,14.48l1.41,1.22l0.61,1.77c1.17,3.41,2.6,6.74,4.26,9.9c0.37,0.7,0.79,1.41,1.26,2.1l2.75,4.06
				l-2.9,3.95c-0.23,0.32-0.47,0.64-0.7,0.98c-0.85,1.22-1.65,2.34-2.42,3.41c-3.06,4.27-5.71,7.95-8.13,13.91
				c-3.38,8.33-4.55,17.16-3.38,25.54l0.84,6.05l-5.89,1.6c-4.52,1.23-8.04,4.55-9.65,9.1c-2.6,7.35,0.11,16.43,7.45,24.92
				c0.27,0.32,0.54,0.62,0.8,0.92l0,0c4.93,5.62,11.08,10.05,17.99,12.91C323.37,292.41,356.62,301.27,388.4,282.01z"/>
			<g>
				<path class="st2" d="M378.93,154.46c0.25-0.43,0.54-0.9,0.86-1.41c-0.06-0.04-0.11-0.08-0.17-0.12
					C379.36,153.52,379.14,154.01,378.93,154.46z"/>
				<path class="st1" d="M349.34,221.72c-0.85,1.45-2.72,1.95-4.18,1.1c-1.46-0.85-1.95-2.73-1.11-4.18
					c0.85-1.46,2.73-1.96,4.19-1.11C349.7,218.38,350.19,220.26,349.34,221.72z"/>
				<path class="st1" d="M359.82,217.31c-0.73,1.26-2.36,1.69-3.63,0.96c-1.27-0.74-1.7-2.37-0.96-3.63
					c0.74-1.27,2.37-1.7,3.64-0.96C360.14,214.42,360.56,216.05,359.82,217.31z"/>
				<path class="st1" d="M354.38,221.54c-0.28,0.49-0.92,0.66-1.41,0.37c-0.49-0.29-0.66-0.92-0.37-1.41
					c0.29-0.49,0.92-0.66,1.41-0.37C354.5,220.42,354.67,221.05,354.38,221.54z"/>
				<path class="st1" d="M357.97,207.89c-0.28,0.49-0.91,0.66-1.41,0.37c-0.49-0.29-0.66-0.92-0.37-1.41
					c0.29-0.49,0.92-0.66,1.41-0.37C358.09,206.77,358.26,207.4,357.97,207.89z"/>
				<path class="st2" d="M321.35,181.22l-0.1,1.04c0.48-0.22,0.95-0.41,1.42-0.56L321.35,181.22z"/>
				<path class="st1" d="M361.93,149.33c-3.1,0.04-5.59,2.59-5.55,5.7c0.04,3.1,2.59,5.58,5.7,5.54c3.11-0.04,5.59-2.59,5.55-5.69
					C367.58,151.77,365.04,149.29,361.93,149.33z M362.04,157.76c-1.55,0.02-2.83-1.22-2.85-2.77c-0.02-1.55,1.22-2.83,2.77-2.85
					c1.55-0.02,2.83,1.22,2.85,2.77C364.84,156.47,363.6,157.74,362.04,157.76z"/>
				<path class="st1" d="M327.99,149.43c-3.1,0.04-5.59,2.59-5.55,5.7c0.04,3.1,2.59,5.58,5.7,5.54c3.1-0.04,5.59-2.59,5.55-5.69
					C333.65,151.87,331.1,149.39,327.99,149.43z M328.11,157.86c-1.55,0.02-2.83-1.22-2.85-2.77c-0.02-1.55,1.22-2.83,2.77-2.85
					c1.55-0.02,2.83,1.22,2.85,2.77C330.9,156.56,329.66,157.84,328.11,157.86z"/>
				<path class="st3" d="M305.52,248.96c-13.22-15.9-31.42-0.96-14.03,19.12c0.26,0.3,0.51,0.59,0.76,0.88
					c1.95-6.54,6.85-15.14,14.64-18.36C306.44,250.05,305.98,249.51,305.52,248.96z"/>
				<path class="st2" d="M385.49,277.6c0,0,0-0.01,0-0.02C385.49,277.58,385.49,277.59,385.49,277.6z"/>
				<path class="st2" d="M385.48,277.58c-0.01-0.1-0.01-0.18-0.02-0.23C385.47,277.43,385.48,277.53,385.48,277.58z"/>
				<path class="st2" d="M385.47,277.28C385.46,277.21,385.46,277.23,385.47,277.28L385.47,277.28z"/>
				<path class="st2" d="M385.47,277.34c0-0.02,0-0.04,0-0.06C385.47,277.3,385.47,277.32,385.47,277.34z"/>
				<path class="st3" d="M387.15,245.34c0.04,0.22-3.69,6-7.36,9.52c8.1,5.48,9.34,16.49,5.7,22.75c8.47-5.6,13.32-12.61,12.57-19.7
					C397.4,251.66,394.76,249.03,387.15,245.34z"/>
				<path class="st3" d="M317.66,259.73c-5.36,5.01-9.7,15.89-9.08,19.67c3.99,3.59,11.66,6.72,18.32,8.19
					c-1.77-4.29-0.55-17.25,3.03-22.03C324.8,264.34,320.31,261.72,317.66,259.73z"/>
				<path class="st3" d="M364.43,263.57c-4.52,1.55-9.78,3.5-15.17,4.07c-0.74,0.08-1.47,0.14-2.2,0.2c-0.7,0.05-1.39,0.1-2.09,0.13
					c-0.17,0.64-0.13,0.5-0.3,1.2c-1.22,5.26-2.1,12.19,0.86,20.2c3.38,0.01,2.08-0.13,5.64-0.5c4.97-0.53,9.73-1.42,14.18-2.6
					C369.81,281.22,370.44,271.24,364.43,263.57z"/>
				<path class="st4" d="M370.56,180.84c0.14-0.11,0.28-0.22,0.42-0.32c2.82-2.28,5-4.77,6.28-7.25c1.85-3.57,3.35-7.29,4.51-11.14
					c0.31-1.02,0.96-1.65,1.72-2.31c4.73-4.04,9.1-8.39,11.97-14c2.88-5.62,0.83-21.93,0.43-24.12c-0.6-3.23-1.76-4.07-4.91-3.15
					c-4.33,1.26-8.03,3.77-11.71,6.29c-1.42,0.97-3.97,3-8.03,0.27c-5.8-3.89-11.96-6.41-18.82-7.21c-2.51-0.29-5.01-0.44-7.49-0.42
					c-2.48-0.01-4.98,0.16-7.49,0.46c-6.85,0.84-13.17,3.16-18.77,7.32c-1.27,0.94-4.04,3.17-8.03-0.23
					c-3.39-2.89-7.41-4.98-11.74-6.22c-3.16-0.9-4.32-0.06-4.89,3.17c-0.39,2.19-2.35,18.51,0.56,24.11
					c2.91,5.59,7.31,9.93,12.05,13.93c0.77,0.65,1.42,1.28,1.73,2.3c1.18,3.84,2.71,7.55,4.58,11.12c1.18,2.24,3.09,4.48,5.54,6.57
					c0.31,0.23,0.64,0.48,1,0.76c4.02,3.1,7.5,5.28,7.4,5.26c-2.71-0.5-5.73-1.59-7.41-2.76c-0.33,0.18,0.33-0.22,0,0
					c-0.24,0.16-0.47,0.32-0.71,0.5c-1.87,1.39-3.79,3.42-5.74,6.23c-4.15,5.99-7.23,9.51-9.99,16.29
					c-6.78,16.72-3.59,35.18,10.06,46.9c14.39,12.36,30.44,11.45,30.44,11.45c0.26-2.38-0.58-4.17-1.38-6.42
					c-1.81-5.06-6.1-10.02-12.02-15.84c-1.29-1.27-2.44-2.54-3.47-3.82c-1.76-2.18-3.14-4.38-4.17-6.59
					c-0.17-0.36-0.32-0.72-0.47-1.08c-0.03-0.07-0.06-0.14-0.08-0.2c-0.14-0.35-0.27-0.7-0.4-1.05c-0.02-0.06-0.04-0.12-0.06-0.18
					c-0.12-0.34-0.22-0.68-0.33-1.02c-0.01-0.03-0.02-0.06-0.03-0.09c-0.1-0.34-0.19-0.68-0.27-1.02c-0.01-0.05-0.03-0.11-0.04-0.16
					c-0.34-1.96-0.4-3.93-0.19-5.91c0.28,3.31,1.34,6.52,3.21,9.59c12.15-10.13,25.77-21.59,26.31-22.52l6.98-12l-2.25-1.31
					c-0.83-0.48-1.28-1.26-0.98-1.76c0.28-0.49,1.19-0.49,2.01-0.01l9.38,5.46l-0.02,0.04l9.39,5.46c0.83,0.48,1.27,1.27,0.98,1.76
					c-0.28,0.48-1.19,0.49-2.02,0.01l-2.25-1.31l-6.98,11.99c-0.31,0.54-2.66,12.85-4.41,22.19c4.94-5.04,7.91-13.27,8.16-18.89
					c1.09,7.38-1.66,14.98-8.8,22.19c-0.01,0.05,0.01-0.05,0,0c-5.68,5.65-9.71,10.57-11.34,15.6c-0.73,2.25-0.98,4.52-0.67,6.88
					c0.04,0,0.09,0,0.13,0c7.22,0,22.77-4.84,29.56-11.45c12.9-12.55,16.85-30.18,10.06-46.9c-2.76-6.79-5.84-10.31-9.99-16.29
					c-2.18-3.15-4.34-5.32-6.42-6.71c-0.34-0.23,1.01,0.62,0,0c-1.69,1.19-3.76,2.06-7.49,2.8c-0.08,0.02,2.41-1.55,5.62-3.92
					l0-0.02c0.17-0.12,0.33-0.24,0.5-0.35C369.69,181.5,370.12,181.18,370.56,180.84z M379.48,140.57c1.07-3.14,3.2-5.71,5.47-8.08
					c2.47-2.57,5.05-5.03,7.89-7.84c0.88,4.75,1.73,8.99,1.71,13.34c-0.01,1.56-0.29,3.07-0.73,4.56
					c-1.65,6.56-9.68,12.28-10.3,12.92c0,0-1.27,0.8-1.83,0.08C377.74,151.02,377.67,145.88,379.48,140.57z M308.39,155.76
					c-0.55,0.73-1.83-0.07-1.83-0.07c-0.62-0.63-8.69-6.31-10.38-12.86c-0.45-1.49-0.74-2.99-0.76-4.55
					c-0.05-4.35,0.78-8.59,1.63-13.35c2.85,2.79,5.45,5.24,7.93,7.8c2.29,2.36,4.43,4.91,5.52,8.05
					C312.35,146.07,312.31,151.21,308.39,155.76z M323.01,168.25c-1.38-0.46-4.1-2.22-4.99-3.69c-2.04-2.37-3.29-5.48-3.32-8.88
					c-0.11-11.25,11.2-18.82,13.2-18.85c2.03-0.03,13.43,7.05,13.55,18.51c0.01,1.42-0.21,2.78-0.57,4.05
					c-0.44,1.53-1.13,2.93-2.03,4.19c-0.16,0.23-0.35,0.45-0.54,0.71c0.01,0,0,0,0.01,0c-0.36,0.42-3.21,3.25-4.93,3.81
					c-1.59,0.7-3.34,1.09-5.17,1.11C326.37,169.25,324.61,168.9,323.01,168.25z M357.88,184.18c-0.08,0.08-0.16,0.17-0.25,0.25
					c-1.6,1.55-3.55,2.47-5.68,3c-1.15,0.29-2.33,0.49-3.5,0.72c-1.06,0.11-2.17,0.17-3.31,0.17c-1.13,0-2.23-0.06-3.27-0.16
					c-1.24-0.18-2.45-0.39-3.62-0.7l-1.9-0.7l-1.36-0.5c-0.48-0.24-0.95-0.52-1.41-0.83c-0.23-0.15-0.44-0.31-0.64-0.47
					c-2.16-1.74-2.9-3.96-2.1-6.75c2.49-3.94,5.53-7.44,8.79-10.73c3.57-3.61,6.94-3.72,10.49-0.24c3.39,3.31,6.5,6.91,9.01,10.97
					C359.94,180.49,359.49,182.48,357.88,184.18z M367.32,168.02c-1.59,0.7-3.34,1.09-5.17,1.11c-1.84,0.02-3.6-0.33-5.2-0.98
					c-1.38-0.46-4.1-2.22-4.99-3.69c-2.04-2.37-3.29-5.48-3.32-8.88c-0.11-11.25,11.2-18.82,13.2-18.85
					c2.03-0.03,13.43,7.05,13.55,18.51c0.01,1.42-0.21,2.78-0.57,4.05c-0.44,1.53-1.13,2.93-2.03,4.19
					c-0.16,0.23-0.35,0.45-0.54,0.71c0.01,0,0,0,0.01,0C371.88,164.62,369.04,167.45,367.32,168.02z"/>
				<path class="st1" d="M331.76,240.99c6.11,6.01,10.58,11.14,12.56,16.68c0.11,0.3,0.21,0.59,0.32,0.87
					c0.21,0.55,0.41,1.12,0.6,1.69c0.15-0.98,0.39-1.97,0.71-2.96c1.52-4.71,4.94-9.52,11.39-15.99l1.02-5.45
					c0.74-3.92,1.33-7.05,1.82-9.56c0.3-1.78,0.47-2.85,0.47-2.85c-7.68-1.51-9.9,5.23-24.39,0.19c-3.02,2.54-6.61,5.55-10.91,9.13
					c0.85,1.55,1.9,3.1,3.12,4.62C329.44,238.58,330.55,239.8,331.76,240.99z"/>
			</g>
		</g>
	</g>
</g>
</svg>
